<mxfile host="app.diagrams.net" agent="Mozilla/5.0 (X11; Linux x86_64) AppleWebKit/537.36 (KHTML, like Gecko) Chrome/134.0.0.0 Safari/537.36" version="26.1.0" pages="2">
  <diagram name="第 1 页" id="lFAaLo7huGlWTIp2Lcyf">
    <mxGraphModel grid="1" page="1" gridSize="10" guides="1" tooltips="1" connect="1" arrows="1" fold="1" pageScale="1" pageWidth="1169" pageHeight="827" math="0" shadow="0">
      <root>
        <mxCell id="0" />
        <mxCell id="1" parent="0" />
        <mxCell id="UPVmFBT0MDqUm_56yAkY-56" value="" style="whiteSpace=wrap;html=1;fillColor=#ffe6cc;strokeColor=#d79b00;" vertex="1" parent="1">
          <mxGeometry x="580" y="380" width="550" height="50" as="geometry" />
        </mxCell>
        <mxCell id="UPVmFBT0MDqUm_56yAkY-54" value="" style="whiteSpace=wrap;html=1;fillColor=#d5e8d4;strokeColor=#82b366;" vertex="1" parent="1">
          <mxGeometry x="580" y="230" width="550" height="140" as="geometry" />
        </mxCell>
        <mxCell id="UPVmFBT0MDqUm_56yAkY-38" value="" style="whiteSpace=wrap;html=1;fillColor=#dae8fc;strokeColor=#6c8ebf;" vertex="1" parent="1">
          <mxGeometry x="580" y="170" width="550" height="50" as="geometry" />
        </mxCell>
        <mxCell id="Xk9EZmTTloKpiQCqurxU-3" value="" style="edgeStyle=orthogonalEdgeStyle;rounded=0;orthogonalLoop=1;jettySize=auto;html=1;" parent="1" source="Xk9EZmTTloKpiQCqurxU-1" target="Xk9EZmTTloKpiQCqurxU-2" edge="1">
          <mxGeometry relative="1" as="geometry" />
        </mxCell>
        <mxCell id="Xk9EZmTTloKpiQCqurxU-1" value="&lt;div&gt;&lt;pre style=&quot;font-family: &amp;quot;JetBrains Mono&amp;quot;, monospace;&quot;&gt;&lt;font style=&quot;color: rgb(0, 0, 0); font-size: 13px;&quot;&gt;VecEnv&lt;/font&gt;&lt;/pre&gt;&lt;/div&gt;" style="rounded=1;whiteSpace=wrap;html=1;" parent="1" vertex="1">
          <mxGeometry x="180" y="110" width="120" height="30" as="geometry" />
        </mxCell>
        <mxCell id="Xk9EZmTTloKpiQCqurxU-5" value="" style="edgeStyle=orthogonalEdgeStyle;rounded=0;orthogonalLoop=1;jettySize=auto;html=1;" parent="1" source="Xk9EZmTTloKpiQCqurxU-2" target="Xk9EZmTTloKpiQCqurxU-4" edge="1">
          <mxGeometry relative="1" as="geometry" />
        </mxCell>
        <mxCell id="Xk9EZmTTloKpiQCqurxU-2" value="&lt;div&gt;&lt;pre style=&quot;font-family: &amp;quot;JetBrains Mono&amp;quot;, monospace; font-size: 9.8pt;&quot;&gt;&lt;span&gt;&lt;font style=&quot;color: rgb(0, 0, 0);&quot;&gt;BaseTask&lt;/font&gt;&lt;/span&gt;&lt;/pre&gt;&lt;/div&gt;" style="whiteSpace=wrap;html=1;rounded=1;" parent="1" vertex="1">
          <mxGeometry x="180" y="160" width="120" height="30" as="geometry" />
        </mxCell>
        <mxCell id="Xk9EZmTTloKpiQCqurxU-9" value="" style="edgeStyle=orthogonalEdgeStyle;rounded=0;orthogonalLoop=1;jettySize=auto;html=1;" parent="1" source="Xk9EZmTTloKpiQCqurxU-4" target="Xk9EZmTTloKpiQCqurxU-8" edge="1">
          <mxGeometry relative="1" as="geometry" />
        </mxCell>
        <mxCell id="Xk9EZmTTloKpiQCqurxU-12" value="" style="edgeStyle=orthogonalEdgeStyle;rounded=0;orthogonalLoop=1;jettySize=auto;html=1;" parent="1" source="Xk9EZmTTloKpiQCqurxU-4" target="Xk9EZmTTloKpiQCqurxU-11" edge="1">
          <mxGeometry relative="1" as="geometry" />
        </mxCell>
        <mxCell id="Xk9EZmTTloKpiQCqurxU-4" value="&lt;div style=&quot;&quot;&gt;&lt;pre style=&quot;font-family: &amp;quot;JetBrains Mono&amp;quot;, monospace;&quot;&gt;&lt;font style=&quot;color: rgb(0, 0, 0); font-size: 13px;&quot;&gt;LeggedRobot&lt;/font&gt;&lt;/pre&gt;&lt;/div&gt;" style="whiteSpace=wrap;html=1;rounded=1;" parent="1" vertex="1">
          <mxGeometry x="180" y="210" width="120" height="30" as="geometry" />
        </mxCell>
        <mxCell id="Xk9EZmTTloKpiQCqurxU-6" value="&lt;font style=&quot;font-size: 18px;&quot;&gt;环境类继承关系&lt;/font&gt;" style="text;strokeColor=none;align=center;fillColor=none;html=1;verticalAlign=middle;whiteSpace=wrap;rounded=0;" parent="1" vertex="1">
          <mxGeometry x="172.5" y="70" width="135" height="30" as="geometry" />
        </mxCell>
        <mxCell id="Xk9EZmTTloKpiQCqurxU-7" value="&lt;font style=&quot;font-size: 13px;&quot;&gt;a1环境&lt;/font&gt;" style="text;strokeColor=none;align=center;fillColor=none;html=1;verticalAlign=middle;whiteSpace=wrap;rounded=0;" parent="1" vertex="1">
          <mxGeometry x="120" y="210" width="60" height="30" as="geometry" />
        </mxCell>
        <mxCell id="Xk9EZmTTloKpiQCqurxU-8" value="&lt;div style=&quot;&quot;&gt;&lt;pre style=&quot;font-family: &amp;quot;JetBrains Mono&amp;quot;, monospace;&quot;&gt;&lt;font style=&quot;color: rgb(0, 0, 0); font-size: 13px;&quot;&gt;Anymal&lt;/font&gt;&lt;/pre&gt;&lt;/div&gt;" style="whiteSpace=wrap;html=1;rounded=1;" parent="1" vertex="1">
          <mxGeometry x="100" y="300" width="120" height="30" as="geometry" />
        </mxCell>
        <mxCell id="Xk9EZmTTloKpiQCqurxU-10" value="&lt;font style=&quot;font-size: 13px;&quot;&gt;anymal环境&lt;/font&gt;" style="text;strokeColor=none;align=center;fillColor=none;html=1;verticalAlign=middle;whiteSpace=wrap;rounded=0;" parent="1" vertex="1">
          <mxGeometry x="80" y="270" width="80" height="30" as="geometry" />
        </mxCell>
        <mxCell id="Xk9EZmTTloKpiQCqurxU-11" value="&lt;font style=&quot;font-size: 13px;&quot;&gt;Cassie&lt;/font&gt;" style="whiteSpace=wrap;html=1;rounded=1;" parent="1" vertex="1">
          <mxGeometry x="260" y="300" width="120" height="30" as="geometry" />
        </mxCell>
        <mxCell id="Xk9EZmTTloKpiQCqurxU-13" value="&lt;font style=&quot;font-size: 13px;&quot;&gt;cassie环境&lt;/font&gt;" style="text;strokeColor=none;align=center;fillColor=none;html=1;verticalAlign=middle;whiteSpace=wrap;rounded=0;" parent="1" vertex="1">
          <mxGeometry x="240" y="270" width="80" height="30" as="geometry" />
        </mxCell>
        <mxCell id="UPVmFBT0MDqUm_56yAkY-1" value="" style="edgeStyle=orthogonalEdgeStyle;rounded=0;orthogonalLoop=1;jettySize=auto;html=1;" edge="1" parent="1" source="UPVmFBT0MDqUm_56yAkY-2" target="UPVmFBT0MDqUm_56yAkY-4">
          <mxGeometry relative="1" as="geometry" />
        </mxCell>
        <mxCell id="UPVmFBT0MDqUm_56yAkY-16" style="edgeStyle=orthogonalEdgeStyle;rounded=0;orthogonalLoop=1;jettySize=auto;html=1;exitX=0.5;exitY=1;exitDx=0;exitDy=0;entryX=0.5;entryY=0;entryDx=0;entryDy=0;" edge="1" parent="1" source="UPVmFBT0MDqUm_56yAkY-2" target="UPVmFBT0MDqUm_56yAkY-14">
          <mxGeometry relative="1" as="geometry" />
        </mxCell>
        <mxCell id="UPVmFBT0MDqUm_56yAkY-2" value="&lt;div&gt;&lt;pre style=&quot;font-family: &amp;quot;JetBrains Mono&amp;quot;, monospace;&quot;&gt;&lt;font style=&quot;color: rgb(0, 0, 0); font-size: 13px;&quot;&gt;BaseConfig&lt;/font&gt;&lt;/pre&gt;&lt;/div&gt;" style="rounded=1;whiteSpace=wrap;html=1;" vertex="1" parent="1">
          <mxGeometry x="732.5" y="50" width="120" height="30" as="geometry" />
        </mxCell>
        <mxCell id="UPVmFBT0MDqUm_56yAkY-24" style="edgeStyle=orthogonalEdgeStyle;rounded=0;orthogonalLoop=1;jettySize=auto;html=1;exitX=0.5;exitY=1;exitDx=0;exitDy=0;entryX=0;entryY=0.5;entryDx=0;entryDy=0;" edge="1" parent="1" source="UPVmFBT0MDqUm_56yAkY-4" target="UPVmFBT0MDqUm_56yAkY-19">
          <mxGeometry relative="1" as="geometry" />
        </mxCell>
        <mxCell id="UPVmFBT0MDqUm_56yAkY-35" style="edgeStyle=orthogonalEdgeStyle;rounded=0;orthogonalLoop=1;jettySize=auto;html=1;exitX=0.5;exitY=1;exitDx=0;exitDy=0;entryX=0;entryY=0.5;entryDx=0;entryDy=0;" edge="1" parent="1" source="UPVmFBT0MDqUm_56yAkY-4" target="UPVmFBT0MDqUm_56yAkY-51">
          <mxGeometry relative="1" as="geometry">
            <mxPoint x="920" y="254.9999999999999" as="targetPoint" />
          </mxGeometry>
        </mxCell>
        <mxCell id="UPVmFBT0MDqUm_56yAkY-36" style="edgeStyle=orthogonalEdgeStyle;rounded=0;orthogonalLoop=1;jettySize=auto;html=1;exitX=0.5;exitY=1;exitDx=0;exitDy=0;entryX=0;entryY=0.5;entryDx=0;entryDy=0;" edge="1" parent="1" source="UPVmFBT0MDqUm_56yAkY-4" target="UPVmFBT0MDqUm_56yAkY-34">
          <mxGeometry relative="1" as="geometry" />
        </mxCell>
        <mxCell id="UPVmFBT0MDqUm_56yAkY-4" value="&lt;pre style=&quot;&quot;&gt;&lt;font face=&quot;JetBrains Mono, monospace&quot;&gt;&lt;font style=&quot;font-size: 13px;&quot;&gt;LeggedRobotCfgPPO&lt;/font&gt;&lt;span style=&quot;font-size: 9.8pt;&quot;&gt;&lt;/span&gt;&lt;/font&gt;&lt;/pre&gt;" style="whiteSpace=wrap;html=1;rounded=1;" vertex="1" parent="1">
          <mxGeometry x="815" y="130" width="170" height="30" as="geometry" />
        </mxCell>
        <mxCell id="UPVmFBT0MDqUm_56yAkY-8" value="&lt;font style=&quot;font-size: 18px;&quot;&gt;配置类继承关系&lt;/font&gt;" style="text;strokeColor=none;align=center;fillColor=none;html=1;verticalAlign=middle;whiteSpace=wrap;rounded=0;" vertex="1" parent="1">
          <mxGeometry x="725" y="10" width="135" height="30" as="geometry" />
        </mxCell>
        <mxCell id="UPVmFBT0MDqUm_56yAkY-9" value="&lt;font style=&quot;font-size: 13px;&quot;&gt;a1配置&lt;/font&gt;" style="text;strokeColor=none;align=center;fillColor=none;html=1;verticalAlign=middle;whiteSpace=wrap;rounded=0;" vertex="1" parent="1">
          <mxGeometry x="610" y="180" width="60" height="30" as="geometry" />
        </mxCell>
        <mxCell id="UPVmFBT0MDqUm_56yAkY-11" value="&lt;font style=&quot;font-size: 13px;&quot;&gt;anymal配置&lt;/font&gt;" style="text;strokeColor=none;align=center;fillColor=none;html=1;verticalAlign=middle;whiteSpace=wrap;rounded=0;" vertex="1" parent="1">
          <mxGeometry x="590" y="284" width="80" height="30" as="geometry" />
        </mxCell>
        <mxCell id="UPVmFBT0MDqUm_56yAkY-13" value="&lt;font style=&quot;font-size: 13px;&quot;&gt;cassie配置&lt;/font&gt;" style="text;strokeColor=none;align=center;fillColor=none;html=1;verticalAlign=middle;whiteSpace=wrap;rounded=0;" vertex="1" parent="1">
          <mxGeometry x="590" y="390" width="80" height="30" as="geometry" />
        </mxCell>
        <mxCell id="UPVmFBT0MDqUm_56yAkY-18" style="edgeStyle=orthogonalEdgeStyle;rounded=0;orthogonalLoop=1;jettySize=auto;html=1;exitX=0.5;exitY=1;exitDx=0;exitDy=0;entryX=0;entryY=0.5;entryDx=0;entryDy=0;" edge="1" parent="1" source="UPVmFBT0MDqUm_56yAkY-14" target="UPVmFBT0MDqUm_56yAkY-17">
          <mxGeometry relative="1" as="geometry">
            <mxPoint x="700" y="230" as="targetPoint" />
            <Array as="points">
              <mxPoint x="675" y="195" />
            </Array>
          </mxGeometry>
        </mxCell>
        <mxCell id="UPVmFBT0MDqUm_56yAkY-30" style="edgeStyle=orthogonalEdgeStyle;rounded=0;orthogonalLoop=1;jettySize=auto;html=1;exitX=0.5;exitY=1;exitDx=0;exitDy=0;entryX=0;entryY=0.5;entryDx=0;entryDy=0;" edge="1" parent="1" source="UPVmFBT0MDqUm_56yAkY-14" target="UPVmFBT0MDqUm_56yAkY-29">
          <mxGeometry relative="1" as="geometry" />
        </mxCell>
        <mxCell id="UPVmFBT0MDqUm_56yAkY-37" style="edgeStyle=orthogonalEdgeStyle;rounded=0;orthogonalLoop=1;jettySize=auto;html=1;exitX=0.5;exitY=1;exitDx=0;exitDy=0;entryX=0;entryY=0.5;entryDx=0;entryDy=0;" edge="1" parent="1" source="UPVmFBT0MDqUm_56yAkY-14" target="UPVmFBT0MDqUm_56yAkY-32">
          <mxGeometry relative="1" as="geometry" />
        </mxCell>
        <mxCell id="UPVmFBT0MDqUm_56yAkY-14" value="&lt;pre style=&quot;&quot;&gt;&lt;font style=&quot;font-size: 13px;&quot; face=&quot;JetBrains Mono, monospace&quot;&gt;LeggedRobotCfg&lt;/font&gt;&lt;/pre&gt;" style="whiteSpace=wrap;html=1;rounded=1;" vertex="1" parent="1">
          <mxGeometry x="590" y="130" width="170" height="30" as="geometry" />
        </mxCell>
        <mxCell id="UPVmFBT0MDqUm_56yAkY-17" value="&lt;div style=&quot;&quot;&gt;&lt;pre style=&quot;&quot;&gt;&lt;font face=&quot;JetBrains Mono, monospace&quot;&gt;&lt;font&gt;A1RoughCfg&lt;/font&gt;&lt;span style=&quot;font-size: 9.8pt;&quot;&gt;&lt;/span&gt;&lt;/font&gt;&lt;/pre&gt;&lt;/div&gt;" style="whiteSpace=wrap;html=1;rounded=1;" vertex="1" parent="1">
          <mxGeometry x="710" y="180" width="120" height="30" as="geometry" />
        </mxCell>
        <mxCell id="UPVmFBT0MDqUm_56yAkY-19" value="&lt;font style=&quot;font-size: 13px;&quot;&gt;A1RoughCfgPPO&lt;/font&gt;" style="whiteSpace=wrap;html=1;rounded=1;" vertex="1" parent="1">
          <mxGeometry x="945" y="180" width="120" height="30" as="geometry" />
        </mxCell>
        <mxCell id="UPVmFBT0MDqUm_56yAkY-47" style="edgeStyle=orthogonalEdgeStyle;rounded=0;orthogonalLoop=1;jettySize=auto;html=1;exitX=0.25;exitY=1;exitDx=0;exitDy=0;entryX=0;entryY=0.5;entryDx=0;entryDy=0;" edge="1" parent="1" source="UPVmFBT0MDqUm_56yAkY-29" target="UPVmFBT0MDqUm_56yAkY-40">
          <mxGeometry relative="1" as="geometry">
            <Array as="points">
              <mxPoint x="710" y="270" />
              <mxPoint x="710" y="299" />
            </Array>
          </mxGeometry>
        </mxCell>
        <mxCell id="UPVmFBT0MDqUm_56yAkY-48" style="edgeStyle=orthogonalEdgeStyle;rounded=0;orthogonalLoop=1;jettySize=auto;html=1;exitX=0.25;exitY=1;exitDx=0;exitDy=0;entryX=0;entryY=0.5;entryDx=0;entryDy=0;" edge="1" parent="1" source="UPVmFBT0MDqUm_56yAkY-29" target="UPVmFBT0MDqUm_56yAkY-46">
          <mxGeometry relative="1" as="geometry">
            <Array as="points">
              <mxPoint x="710" y="270" />
              <mxPoint x="710" y="345" />
            </Array>
          </mxGeometry>
        </mxCell>
        <mxCell id="UPVmFBT0MDqUm_56yAkY-29" value="&lt;div style=&quot;&quot;&gt;&lt;pre style=&quot;&quot;&gt;&lt;font style=&quot;font-size: 13px;&quot; face=&quot;JetBrains Mono, monospace&quot;&gt;AnymalCRoughCfg&lt;/font&gt;&lt;/pre&gt;&lt;/div&gt;" style="whiteSpace=wrap;html=1;rounded=1;" vertex="1" parent="1">
          <mxGeometry x="700" y="240" width="140" height="30" as="geometry" />
        </mxCell>
        <mxCell id="UPVmFBT0MDqUm_56yAkY-32" value="&lt;div style=&quot;&quot;&gt;&lt;pre style=&quot;&quot;&gt;&lt;font style=&quot;font-size: 13px;&quot; face=&quot;JetBrains Mono, monospace&quot;&gt;CassieRoughCfg&lt;/font&gt;&lt;/pre&gt;&lt;/div&gt;" style="whiteSpace=wrap;html=1;rounded=1;" vertex="1" parent="1">
          <mxGeometry x="700" y="390" width="140" height="30" as="geometry" />
        </mxCell>
        <mxCell id="UPVmFBT0MDqUm_56yAkY-34" value="&lt;div style=&quot;&quot;&gt;&lt;pre style=&quot;&quot;&gt;&lt;font style=&quot;font-size: 13px;&quot; face=&quot;JetBrains Mono, monospace&quot;&gt;CassieRoughCfgPPO&lt;/font&gt;&lt;/pre&gt;&lt;/div&gt;" style="whiteSpace=wrap;html=1;rounded=1;" vertex="1" parent="1">
          <mxGeometry x="920" y="390" width="170" height="30" as="geometry" />
        </mxCell>
        <mxCell id="UPVmFBT0MDqUm_56yAkY-40" value="&lt;div style=&quot;&quot;&gt;&lt;pre style=&quot;&quot;&gt;&lt;font face=&quot;JetBrains Mono, monospace&quot;&gt;&lt;span style=&quot;font-size: 13px;&quot;&gt;AnymalCFlatCfg&lt;/span&gt;&lt;/font&gt;&lt;/pre&gt;&lt;/div&gt;" style="whiteSpace=wrap;html=1;rounded=1;" vertex="1" parent="1">
          <mxGeometry x="732.5" y="284" width="140" height="30" as="geometry" />
        </mxCell>
        <mxCell id="UPVmFBT0MDqUm_56yAkY-46" value="&lt;div style=&quot;&quot;&gt;&lt;pre style=&quot;&quot;&gt;&lt;font face=&quot;JetBrains Mono, monospace&quot;&gt;&lt;span style=&quot;font-size: 13px;&quot;&gt;AnymalBRoughCfg&lt;/span&gt;&lt;/font&gt;&lt;/pre&gt;&lt;/div&gt;" style="whiteSpace=wrap;html=1;rounded=1;" vertex="1" parent="1">
          <mxGeometry x="732.5" y="330" width="140" height="30" as="geometry" />
        </mxCell>
        <mxCell id="UPVmFBT0MDqUm_56yAkY-49" style="edgeStyle=orthogonalEdgeStyle;rounded=0;orthogonalLoop=1;jettySize=auto;html=1;exitX=0.25;exitY=1;exitDx=0;exitDy=0;entryX=0;entryY=0.5;entryDx=0;entryDy=0;" edge="1" parent="1" source="UPVmFBT0MDqUm_56yAkY-51" target="UPVmFBT0MDqUm_56yAkY-52">
          <mxGeometry relative="1" as="geometry">
            <Array as="points">
              <mxPoint x="930" y="270" />
              <mxPoint x="930" y="299" />
            </Array>
          </mxGeometry>
        </mxCell>
        <mxCell id="UPVmFBT0MDqUm_56yAkY-50" style="edgeStyle=orthogonalEdgeStyle;rounded=0;orthogonalLoop=1;jettySize=auto;html=1;exitX=0.25;exitY=1;exitDx=0;exitDy=0;entryX=0;entryY=0.5;entryDx=0;entryDy=0;" edge="1" parent="1" source="UPVmFBT0MDqUm_56yAkY-51" target="UPVmFBT0MDqUm_56yAkY-53">
          <mxGeometry relative="1" as="geometry">
            <Array as="points">
              <mxPoint x="930" y="270" />
              <mxPoint x="930" y="345" />
            </Array>
          </mxGeometry>
        </mxCell>
        <mxCell id="UPVmFBT0MDqUm_56yAkY-51" value="&lt;div style=&quot;&quot;&gt;&lt;pre style=&quot;&quot;&gt;&lt;pre&gt;&lt;font style=&quot;font-size: 13px;&quot; face=&quot;JetBrains Mono, monospace&quot;&gt;AnymalCRoughCfgPPO&lt;/font&gt;&lt;/pre&gt;&lt;/pre&gt;&lt;/div&gt;" style="whiteSpace=wrap;html=1;rounded=1;" vertex="1" parent="1">
          <mxGeometry x="920" y="240" width="170" height="30" as="geometry" />
        </mxCell>
        <mxCell id="UPVmFBT0MDqUm_56yAkY-52" value="&lt;div style=&quot;&quot;&gt;&lt;pre style=&quot;&quot;&gt;&lt;pre&gt;&lt;font face=&quot;JetBrains Mono, monospace&quot;&gt;&lt;span style=&quot;font-size: 13px;&quot;&gt;AnymalCFlatCfgPPO&lt;/span&gt;&lt;/font&gt;&lt;/pre&gt;&lt;/pre&gt;&lt;/div&gt;" style="whiteSpace=wrap;html=1;rounded=1;" vertex="1" parent="1">
          <mxGeometry x="950" y="284" width="162.5" height="30" as="geometry" />
        </mxCell>
        <mxCell id="UPVmFBT0MDqUm_56yAkY-53" value="&lt;div style=&quot;&quot;&gt;&lt;pre style=&quot;&quot;&gt;&lt;font face=&quot;JetBrains Mono, monospace&quot;&gt;&lt;span style=&quot;font-size: 13px;&quot;&gt;AnymalBRoughCfgPPO&lt;/span&gt;&lt;/font&gt;&lt;/pre&gt;&lt;/div&gt;" style="whiteSpace=wrap;html=1;rounded=1;" vertex="1" parent="1">
          <mxGeometry x="950" y="330" width="162.5" height="30" as="geometry" />
        </mxCell>
        <mxCell id="UPVmFBT0MDqUm_56yAkY-57" value="&lt;font style=&quot;font-size: 13px;&quot;&gt;环境配置&lt;/font&gt;" style="text;strokeColor=none;align=center;fillColor=none;html=1;verticalAlign=middle;whiteSpace=wrap;rounded=0;" vertex="1" parent="1">
          <mxGeometry x="610" y="100" width="60" height="30" as="geometry" />
        </mxCell>
        <mxCell id="UPVmFBT0MDqUm_56yAkY-58" value="&lt;font style=&quot;font-size: 13px;&quot;&gt;训练配置&lt;/font&gt;" style="text;strokeColor=none;align=center;fillColor=none;html=1;verticalAlign=middle;whiteSpace=wrap;rounded=0;" vertex="1" parent="1">
          <mxGeometry x="900" y="100" width="60" height="30" as="geometry" />
        </mxCell>
      </root>
    </mxGraphModel>
  </diagram>
  <diagram id="wDsKJ58vSO4qY52XYKHF" name="第 2 页">
    <mxGraphModel dx="1368" dy="786" grid="1" gridSize="10" guides="1" tooltips="1" connect="1" arrows="1" fold="1" page="1" pageScale="1" pageWidth="1169" pageHeight="827" math="0" shadow="0">
      <root>
        <mxCell id="0" />
        <mxCell id="1" parent="0" />
        <mxCell id="g2Luo5ToEXIqP96zeGXA-1" value="" style="edgeStyle=orthogonalEdgeStyle;rounded=0;orthogonalLoop=1;jettySize=auto;html=1;entryX=0;entryY=0.5;entryDx=0;entryDy=0;" edge="1" parent="1" source="g2Luo5ToEXIqP96zeGXA-4" target="g2Luo5ToEXIqP96zeGXA-6">
          <mxGeometry relative="1" as="geometry" />
        </mxCell>
        <mxCell id="g2Luo5ToEXIqP96zeGXA-2" value="" style="edgeStyle=orthogonalEdgeStyle;rounded=0;orthogonalLoop=1;jettySize=auto;html=1;entryX=0;entryY=0.5;entryDx=0;entryDy=0;" edge="1" parent="1" source="g2Luo5ToEXIqP96zeGXA-4" target="g2Luo5ToEXIqP96zeGXA-7">
          <mxGeometry relative="1" as="geometry" />
        </mxCell>
        <mxCell id="g2Luo5ToEXIqP96zeGXA-3" value="" style="edgeStyle=orthogonalEdgeStyle;rounded=0;orthogonalLoop=1;jettySize=auto;html=1;entryX=0;entryY=0.5;entryDx=0;entryDy=0;" edge="1" parent="1" source="g2Luo5ToEXIqP96zeGXA-4" target="g2Luo5ToEXIqP96zeGXA-8">
          <mxGeometry relative="1" as="geometry" />
        </mxCell>
        <mxCell id="QFjP8TZSBmbJegZ3r8U--3" style="edgeStyle=orthogonalEdgeStyle;rounded=0;orthogonalLoop=1;jettySize=auto;html=1;exitX=1;exitY=0.5;exitDx=0;exitDy=0;entryX=0;entryY=0.5;entryDx=0;entryDy=0;" edge="1" parent="1" source="g2Luo5ToEXIqP96zeGXA-4" target="QFjP8TZSBmbJegZ3r8U--2">
          <mxGeometry relative="1" as="geometry" />
        </mxCell>
        <mxCell id="g2Luo5ToEXIqP96zeGXA-4" value="&lt;div&gt;&lt;pre style=&quot;font-family: &amp;quot;JetBrains Mono&amp;quot;, monospace;&quot;&gt;&lt;font style=&quot;color: rgb(0, 0, 0); font-size: 13px;&quot;&gt;learn()&lt;/font&gt;&lt;/pre&gt;&lt;/div&gt;" style="rounded=1;whiteSpace=wrap;html=1;" vertex="1" parent="1">
          <mxGeometry x="37.5" y="380" width="120" height="30" as="geometry" />
        </mxCell>
        <mxCell id="g2Luo5ToEXIqP96zeGXA-5" value="&lt;span style=&quot;font-size: 18px;&quot;&gt;训练代码流程&lt;/span&gt;" style="text;strokeColor=none;align=center;fillColor=none;html=1;verticalAlign=middle;whiteSpace=wrap;rounded=0;" vertex="1" parent="1">
          <mxGeometry x="30" y="340" width="135" height="30" as="geometry" />
        </mxCell>
        <mxCell id="g2Luo5ToEXIqP96zeGXA-6" value="&lt;div&gt;&lt;pre style=&quot;font-family: &amp;quot;JetBrains Mono&amp;quot;, monospace;&quot;&gt;&lt;font style=&quot;color: rgb(0, 0, 0); font-size: 13px;&quot;&gt;alg.act()&lt;/font&gt;&lt;/pre&gt;&lt;/div&gt;" style="rounded=1;whiteSpace=wrap;html=1;" vertex="1" parent="1">
          <mxGeometry x="207.5" y="250" width="120" height="30" as="geometry" />
        </mxCell>
        <mxCell id="g2Luo5ToEXIqP96zeGXA-7" value="&lt;div&gt;&lt;pre style=&quot;font-family: &amp;quot;JetBrains Mono&amp;quot;, monospace;&quot;&gt;&lt;font style=&quot;color: rgb(0, 0, 0); font-size: 13px;&quot;&gt;env.step()&lt;/font&gt;&lt;/pre&gt;&lt;/div&gt;" style="rounded=1;whiteSpace=wrap;html=1;" vertex="1" parent="1">
          <mxGeometry x="207.5" y="300" width="120" height="30" as="geometry" />
        </mxCell>
        <mxCell id="g2Luo5ToEXIqP96zeGXA-8" value="&lt;div&gt;&lt;pre style=&quot;font-family: &amp;quot;JetBrains Mono&amp;quot;, monospace;&quot;&gt;&lt;font style=&quot;color: rgb(0, 0, 0); font-size: 13px;&quot;&gt;alg.compute_returns()&lt;/font&gt;&lt;/pre&gt;&lt;/div&gt;" style="rounded=1;whiteSpace=wrap;html=1;" vertex="1" parent="1">
          <mxGeometry x="207.5" y="430" width="192.5" height="30" as="geometry" />
        </mxCell>
        <mxCell id="QFjP8TZSBmbJegZ3r8U--2" value="&lt;div&gt;&lt;pre style=&quot;font-family: &amp;quot;JetBrains Mono&amp;quot;, monospace;&quot;&gt;&lt;font style=&quot;color: rgb(0, 0, 0); font-size: 13px;&quot;&gt;alg.update()&lt;/font&gt;&lt;/pre&gt;&lt;/div&gt;" style="rounded=1;whiteSpace=wrap;html=1;" vertex="1" parent="1">
          <mxGeometry x="207.5" y="500" width="192.5" height="30" as="geometry" />
        </mxCell>
      </root>
    </mxGraphModel>
  </diagram>
</mxfile>
